STARTFONT 2.1
COMMENT Recovered from ar1.1:HL10 1 (Xerox Alto CONVERT font source (AL) recovered from MIT CADR AR1 ARC!!!)
FONT MIT-CADR-HL10-AL-AR1
SIZE 12 72 72
FONTBOUNDINGBOX 12 12 0 -4
STARTPROPERTIES 2
FONT_ASCENT 8
FONT_DESCENT 4
ENDPROPERTIES
CHARS 128
STARTCHAR C0000
ENCODING -1 0
SWIDTH 0 0
DWIDTH 0 0
BBX 0 12 0 -4
BITMAP
00
00
00
00
00
00
00
00
00
00
00
00
ENDCHAR
STARTCHAR C0001
ENCODING -1 1
SWIDTH 0 0
DWIDTH 0 0
BBX 0 12 0 -4
BITMAP
00
00
00
00
00
00
00
00
00
00
00
00
ENDCHAR
STARTCHAR C0002
ENCODING -1 2
SWIDTH 0 0
DWIDTH 0 0
BBX 0 12 0 -4
BITMAP
00
00
00
00
00
00
00
00
00
00
00
00
ENDCHAR
STARTCHAR C0003
ENCODING -1 3
SWIDTH 0 0
DWIDTH 0 0
BBX 0 12 0 -4
BITMAP
00
00
00
00
00
00
00
00
00
00
00
00
ENDCHAR
STARTCHAR C0004
ENCODING -1 4
SWIDTH 0 0
DWIDTH 0 0
BBX 0 12 0 -4
BITMAP
00
00
00
00
00
00
00
00
00
00
00
00
ENDCHAR
STARTCHAR C0005
ENCODING -1 5
SWIDTH 0 0
DWIDTH 0 0
BBX 0 12 0 -4
BITMAP
00
00
00
00
00
00
00
00
00
00
00
00
ENDCHAR
STARTCHAR C0006
ENCODING -1 6
SWIDTH 0 0
DWIDTH 0 0
BBX 0 12 0 -4
BITMAP
00
00
00
00
00
00
00
00
00
00
00
00
ENDCHAR
STARTCHAR C0007
ENCODING -1 7
SWIDTH 0 0
DWIDTH 0 0
BBX 0 12 0 -4
BITMAP
00
00
00
00
00
00
00
00
00
00
00
00
ENDCHAR
STARTCHAR C0008
ENCODING -1 8
SWIDTH 0 0
DWIDTH 0 0
BBX 0 12 0 -4
BITMAP
00
00
00
00
00
00
00
00
00
00
00
00
ENDCHAR
STARTCHAR C0009
ENCODING -1 9
SWIDTH 0 0
DWIDTH 0 0
BBX 0 12 0 -4
BITMAP
00
00
00
00
00
00
00
00
00
00
00
00
ENDCHAR
STARTCHAR C000A
ENCODING -1 10
SWIDTH 0 0
DWIDTH 0 0
BBX 0 12 0 -4
BITMAP
00
00
00
00
00
00
00
00
00
00
00
00
ENDCHAR
STARTCHAR C000B
ENCODING -1 11
SWIDTH 0 0
DWIDTH 0 0
BBX 0 12 0 -4
BITMAP
00
00
00
00
00
00
00
00
00
00
00
00
ENDCHAR
STARTCHAR C000C
ENCODING -1 12
SWIDTH 0 0
DWIDTH 0 0
BBX 0 12 0 -4
BITMAP
00
00
00
00
00
00
00
00
00
00
00
00
ENDCHAR
STARTCHAR C000D
ENCODING -1 13
SWIDTH 0 0
DWIDTH 0 0
BBX 0 12 0 -4
BITMAP
00
00
00
00
00
00
00
00
00
00
00
00
ENDCHAR
STARTCHAR C000E
ENCODING -1 14
SWIDTH 0 0
DWIDTH 0 0
BBX 0 12 0 -4
BITMAP
00
00
00
00
00
00
00
00
00
00
00
00
ENDCHAR
STARTCHAR C000F
ENCODING -1 15
SWIDTH 0 0
DWIDTH 0 0
BBX 0 12 0 -4
BITMAP
00
00
00
00
00
00
00
00
00
00
00
00
ENDCHAR
STARTCHAR C0010
ENCODING -1 16
SWIDTH 0 0
DWIDTH 0 0
BBX 0 12 0 -4
BITMAP
00
00
00
00
00
00
00
00
00
00
00
00
ENDCHAR
STARTCHAR C0011
ENCODING -1 17
SWIDTH 0 0
DWIDTH 0 0
BBX 0 12 0 -4
BITMAP
00
00
00
00
00
00
00
00
00
00
00
00
ENDCHAR
STARTCHAR C0012
ENCODING -1 18
SWIDTH 0 0
DWIDTH 0 0
BBX 0 12 0 -4
BITMAP
00
00
00
00
00
00
00
00
00
00
00
00
ENDCHAR
STARTCHAR C0013
ENCODING -1 19
SWIDTH 0 0
DWIDTH 0 0
BBX 0 12 0 -4
BITMAP
00
00
00
00
00
00
00
00
00
00
00
00
ENDCHAR
STARTCHAR C0014
ENCODING -1 20
SWIDTH 0 0
DWIDTH 0 0
BBX 0 12 0 -4
BITMAP
00
00
00
00
00
00
00
00
00
00
00
00
ENDCHAR
STARTCHAR C0015
ENCODING -1 21
SWIDTH 0 0
DWIDTH 0 0
BBX 0 12 0 -4
BITMAP
00
00
00
00
00
00
00
00
00
00
00
00
ENDCHAR
STARTCHAR C0016
ENCODING -1 22
SWIDTH 0 0
DWIDTH 0 0
BBX 0 12 0 -4
BITMAP
00
00
00
00
00
00
00
00
00
00
00
00
ENDCHAR
STARTCHAR C0017
ENCODING -1 23
SWIDTH 0 0
DWIDTH 0 0
BBX 0 12 0 -4
BITMAP
00
00
00
00
00
00
00
00
00
00
00
00
ENDCHAR
STARTCHAR C0018
ENCODING -1 24
SWIDTH 0 0
DWIDTH 0 0
BBX 11 12 0 -4
BITMAP
0000
0000
0000
0000
0000
0000
0000
0000
0000
0000
0000
FFE0
ENDCHAR
STARTCHAR C0019
ENCODING -1 25
SWIDTH 0 0
DWIDTH 0 0
BBX 0 12 0 -4
BITMAP
00
00
00
00
00
00
00
00
00
00
00
00
ENDCHAR
STARTCHAR C001A
ENCODING -1 26
SWIDTH 0 0
DWIDTH 0 0
BBX 0 12 0 -4
BITMAP
00
00
00
00
00
00
00
00
00
00
00
00
ENDCHAR
STARTCHAR C001B
ENCODING -1 27
SWIDTH 0 0
DWIDTH 0 0
BBX 0 12 0 -4
BITMAP
00
00
00
00
00
00
00
00
00
00
00
00
ENDCHAR
STARTCHAR C001C
ENCODING -1 28
SWIDTH 0 0
DWIDTH 0 0
BBX 0 12 0 -4
BITMAP
00
00
00
00
00
00
00
00
00
00
00
00
ENDCHAR
STARTCHAR C001D
ENCODING -1 29
SWIDTH 0 0
DWIDTH 0 0
BBX 0 12 0 -4
BITMAP
00
00
00
00
00
00
00
00
00
00
00
00
ENDCHAR
STARTCHAR C001E
ENCODING -1 30
SWIDTH 0 0
DWIDTH 0 0
BBX 0 12 0 -4
BITMAP
00
00
00
00
00
00
00
00
00
00
00
00
ENDCHAR
STARTCHAR C001F
ENCODING -1 31
SWIDTH 0 0
DWIDTH 0 0
BBX 0 12 0 -4
BITMAP
00
00
00
00
00
00
00
00
00
00
00
00
ENDCHAR
STARTCHAR C0020
ENCODING -1 32
SWIDTH 417 0
DWIDTH 5 0
BBX 5 12 0 -4
BITMAP
00
00
00
00
00
00
00
00
00
00
00
00
ENDCHAR
STARTCHAR C0021
ENCODING -1 33
SWIDTH 250 0
DWIDTH 3 0
BBX 3 12 0 -4
BITMAP
00
40
40
40
40
40
00
40
40
00
00
00
ENDCHAR
STARTCHAR C0022
ENCODING -1 34
SWIDTH 417 0
DWIDTH 5 0
BBX 5 12 0 -4
BITMAP
00
50
50
50
00
00
00
00
00
00
00
00
ENDCHAR
STARTCHAR C0023
ENCODING -1 35
SWIDTH 917 0
DWIDTH 11 0
BBX 11 12 0 -4
BITMAP
0000
0480
0480
1FC0
0900
1200
7F00
2400
2400
0000
0000
0000
ENDCHAR
STARTCHAR C0024
ENCODING -1 36
SWIDTH 583 0
DWIDTH 7 0
BBX 7 12 0 -4
BITMAP
10
38
54
50
38
14
14
54
38
10
00
00
ENDCHAR
STARTCHAR C0025
ENCODING -1 37
SWIDTH 1000 0
DWIDTH 12 0
BBX 12 12 0 -4
BITMAP
0000
3100
4900
4A00
3200
04C0
0520
0920
08C0
0000
0000
0000
ENDCHAR
STARTCHAR C0026
ENCODING -1 38
SWIDTH 750 0
DWIDTH 9 0
BBX 9 12 0 -4
BITMAP
0000
1800
2400
2400
1800
2800
4500
4200
3D00
0000
0000
0000
ENDCHAR
STARTCHAR C0027
ENCODING -1 39
SWIDTH 250 0
DWIDTH 3 0
BBX 3 12 0 -4
BITMAP
00
40
40
40
00
00
00
00
00
00
00
00
ENDCHAR
STARTCHAR C0028
ENCODING -1 40
SWIDTH 417 0
DWIDTH 5 0
BBX 5 12 0 -4
BITMAP
00
10
20
20
40
40
40
40
40
20
20
10
ENDCHAR
STARTCHAR C0029
ENCODING -1 41
SWIDTH 417 0
DWIDTH 5 0
BBX 5 12 0 -4
BITMAP
00
40
20
20
10
10
10
10
10
20
20
40
ENDCHAR
STARTCHAR C002A
ENCODING -1 42
SWIDTH 583 0
DWIDTH 7 0
BBX 7 12 0 -4
BITMAP
10
54
38
54
10
00
00
00
00
00
00
00
ENDCHAR
STARTCHAR C002B
ENCODING -1 43
SWIDTH 750 0
DWIDTH 9 0
BBX 9 12 0 -4
BITMAP
0000
0000
0800
0800
0800
7F00
0800
0800
0800
0000
0000
0000
ENDCHAR
STARTCHAR C002C
ENCODING -1 44
SWIDTH 333 0
DWIDTH 4 0
BBX 4 12 0 -4
BITMAP
00
00
00
00
00
00
00
60
20
20
40
00
ENDCHAR
STARTCHAR C002D
ENCODING -1 45
SWIDTH 583 0
DWIDTH 7 0
BBX 7 12 0 -4
BITMAP
00
00
00
00
7C
00
00
00
00
00
00
00
ENDCHAR
STARTCHAR C002E
ENCODING -1 46
SWIDTH 250 0
DWIDTH 3 0
BBX 3 12 0 -4
BITMAP
00
00
00
00
00
00
00
40
40
00
00
00
ENDCHAR
STARTCHAR C002F
ENCODING -1 47
SWIDTH 500 0
DWIDTH 6 0
BBX 6 12 0 -4
BITMAP
00
08
08
10
10
20
20
40
40
00
00
00
ENDCHAR
STARTCHAR C0030
ENCODING -1 48
SWIDTH 667 0
DWIDTH 8 0
BBX 8 12 0 -4
BITMAP
00
3C
42
42
42
42
42
42
3C
00
00
00
ENDCHAR
STARTCHAR C0031
ENCODING -1 49
SWIDTH 667 0
DWIDTH 8 0
BBX 8 12 0 -4
BITMAP
00
04
0C
14
04
04
04
04
04
00
00
00
ENDCHAR
STARTCHAR C0032
ENCODING -1 50
SWIDTH 667 0
DWIDTH 8 0
BBX 8 12 0 -4
BITMAP
00
3C
42
42
02
0C
30
40
7E
00
00
00
ENDCHAR
STARTCHAR C0033
ENCODING -1 51
SWIDTH 667 0
DWIDTH 8 0
BBX 8 12 0 -4
BITMAP
00
3C
42
42
0C
02
42
42
3C
00
00
00
ENDCHAR
STARTCHAR C0034
ENCODING -1 52
SWIDTH 667 0
DWIDTH 8 0
BBX 8 12 0 -4
BITMAP
00
0C
14
14
24
44
7E
04
04
00
00
00
ENDCHAR
STARTCHAR C0035
ENCODING -1 53
SWIDTH 667 0
DWIDTH 8 0
BBX 8 12 0 -4
BITMAP
00
3E
20
20
7C
42
02
42
3C
00
00
00
ENDCHAR
STARTCHAR C0036
ENCODING -1 54
SWIDTH 667 0
DWIDTH 8 0
BBX 8 12 0 -4
BITMAP
00
1C
22
40
7C
42
42
42
3C
00
00
00
ENDCHAR
STARTCHAR C0037
ENCODING -1 55
SWIDTH 667 0
DWIDTH 8 0
BBX 8 12 0 -4
BITMAP
00
7E
02
04
04
08
08
10
10
00
00
00
ENDCHAR
STARTCHAR C0038
ENCODING -1 56
SWIDTH 667 0
DWIDTH 8 0
BBX 8 12 0 -4
BITMAP
00
3C
42
42
3C
42
42
42
3C
00
00
00
ENDCHAR
STARTCHAR C0039
ENCODING -1 57
SWIDTH 667 0
DWIDTH 8 0
BBX 8 12 0 -4
BITMAP
00
3C
42
42
42
3E
02
44
38
00
00
00
ENDCHAR
STARTCHAR C003A
ENCODING -1 58
SWIDTH 250 0
DWIDTH 3 0
BBX 3 12 0 -4
BITMAP
00
00
00
40
40
00
00
40
40
00
00
00
ENDCHAR
STARTCHAR C003B
ENCODING -1 59
SWIDTH 333 0
DWIDTH 4 0
BBX 4 12 0 -4
BITMAP
00
00
00
20
20
00
00
60
20
20
40
00
ENDCHAR
STARTCHAR C003C
ENCODING -1 60
SWIDTH 500 0
DWIDTH 6 0
BBX 6 12 0 -4
BITMAP
00
08
10
20
40
40
20
10
08
00
00
00
ENDCHAR
STARTCHAR C003D
ENCODING -1 61
SWIDTH 583 0
DWIDTH 7 0
BBX 7 12 0 -4
BITMAP
00
00
00
00
7C
00
7C
00
00
00
00
00
ENDCHAR
STARTCHAR C003E
ENCODING -1 62
SWIDTH 500 0
DWIDTH 6 0
BBX 6 12 0 -4
BITMAP
00
40
20
10
08
08
10
20
40
00
00
00
ENDCHAR
STARTCHAR C003F
ENCODING -1 63
SWIDTH 583 0
DWIDTH 7 0
BBX 7 12 0 -4
BITMAP
00
38
44
04
08
10
00
10
10
00
00
00
ENDCHAR
STARTCHAR C0040
ENCODING -1 64
SWIDTH 833 0
DWIDTH 10 0
BBX 10 12 0 -4
BITMAP
0000
1E00
2100
4C80
5280
5280
4D00
2000
1F80
0000
0000
0000
ENDCHAR
STARTCHAR C0041
ENCODING -1 65
SWIDTH 750 0
DWIDTH 9 0
BBX 9 12 0 -4
BITMAP
0000
0800
0800
1400
1400
2200
3E00
4100
4100
0000
0000
0000
ENDCHAR
STARTCHAR C0042
ENCODING -1 66
SWIDTH 667 0
DWIDTH 8 0
BBX 8 12 0 -4
BITMAP
00
7C
42
42
7C
42
42
42
7C
00
00
00
ENDCHAR
STARTCHAR C0043
ENCODING -1 67
SWIDTH 750 0
DWIDTH 9 0
BBX 9 12 0 -4
BITMAP
0000
1E00
2100
4100
4000
4000
4100
2100
1E00
0000
0000
0000
ENDCHAR
STARTCHAR C0044
ENCODING -1 68
SWIDTH 750 0
DWIDTH 9 0
BBX 9 12 0 -4
BITMAP
0000
7C00
4200
4100
4100
4100
4100
4200
7C00
0000
0000
0000
ENDCHAR
STARTCHAR C0045
ENCODING -1 69
SWIDTH 583 0
DWIDTH 7 0
BBX 7 12 0 -4
BITMAP
00
7C
40
40
78
40
40
40
7C
00
00
00
ENDCHAR
STARTCHAR C0046
ENCODING -1 70
SWIDTH 500 0
DWIDTH 6 0
BBX 6 12 0 -4
BITMAP
00
7C
40
40
78
40
40
40
40
00
00
00
ENDCHAR
STARTCHAR C0047
ENCODING -1 71
SWIDTH 750 0
DWIDTH 9 0
BBX 9 12 0 -4
BITMAP
0000
1E00
2100
4100
4000
4700
4100
2300
1D00
0000
0000
0000
ENDCHAR
STARTCHAR C0048
ENCODING -1 72
SWIDTH 667 0
DWIDTH 8 0
BBX 8 12 0 -4
BITMAP
00
42
42
42
7E
42
42
42
42
00
00
00
ENDCHAR
STARTCHAR C0049
ENCODING -1 73
SWIDTH 250 0
DWIDTH 3 0
BBX 3 12 0 -4
BITMAP
00
40
40
40
40
40
40
40
40
00
00
00
ENDCHAR
STARTCHAR C004A
ENCODING -1 74
SWIDTH 500 0
DWIDTH 6 0
BBX 6 12 0 -4
BITMAP
00
08
08
08
08
08
08
88
70
00
00
00
ENDCHAR
STARTCHAR C004B
ENCODING -1 75
SWIDTH 667 0
DWIDTH 8 0
BBX 8 12 0 -4
BITMAP
00
42
44
48
50
68
44
42
41
00
00
00
ENDCHAR
STARTCHAR C004C
ENCODING -1 76
SWIDTH 500 0
DWIDTH 6 0
BBX 6 12 0 -4
BITMAP
00
40
40
40
40
40
40
40
7C
00
00
00
ENDCHAR
STARTCHAR C004D
ENCODING -1 77
SWIDTH 917 0
DWIDTH 11 0
BBX 11 12 0 -4
BITMAP
0000
60C0
60C0
5140
5140
4A40
4A40
4440
4440
0000
0000
0000
ENDCHAR
STARTCHAR C004E
ENCODING -1 78
SWIDTH 750 0
DWIDTH 9 0
BBX 9 12 0 -4
BITMAP
0000
6100
5100
5100
4900
4900
4500
4500
4300
0000
0000
0000
ENDCHAR
STARTCHAR C004F
ENCODING -1 79
SWIDTH 750 0
DWIDTH 9 0
BBX 9 12 0 -4
BITMAP
0000
1C00
2200
4100
4100
4100
4100
2200
1C00
0000
0000
0000
ENDCHAR
STARTCHAR C0050
ENCODING -1 80
SWIDTH 583 0
DWIDTH 7 0
BBX 7 12 0 -4
BITMAP
00
7C
42
42
42
7C
40
40
40
00
00
00
ENDCHAR
STARTCHAR C0051
ENCODING -1 81
SWIDTH 750 0
DWIDTH 9 0
BBX 9 12 0 -4
BITMAP
0000
1C00
2200
4100
4100
4100
4500
2200
1D00
0080
0000
0000
ENDCHAR
STARTCHAR C0052
ENCODING -1 82
SWIDTH 667 0
DWIDTH 8 0
BBX 8 12 0 -4
BITMAP
00
7C
42
42
7C
42
42
42
42
00
00
00
ENDCHAR
STARTCHAR C0053
ENCODING -1 83
SWIDTH 667 0
DWIDTH 8 0
BBX 8 12 0 -4
BITMAP
00
3C
42
40
3C
02
42
42
3C
00
00
00
ENDCHAR
STARTCHAR C0054
ENCODING -1 84
SWIDTH 750 0
DWIDTH 9 0
BBX 9 12 0 -4
BITMAP
0000
7F00
0800
0800
0800
0800
0800
0800
0800
0000
0000
0000
ENDCHAR
STARTCHAR C0055
ENCODING -1 85
SWIDTH 667 0
DWIDTH 8 0
BBX 8 12 0 -4
BITMAP
00
42
42
42
42
42
42
42
3C
00
00
00
ENDCHAR
STARTCHAR C0056
ENCODING -1 86
SWIDTH 750 0
DWIDTH 9 0
BBX 9 12 0 -4
BITMAP
0000
4100
4100
2200
2200
1400
1400
0800
0800
0000
0000
0000
ENDCHAR
STARTCHAR C0057
ENCODING -1 87
SWIDTH 917 0
DWIDTH 11 0
BBX 11 12 0 -4
BITMAP
0000
4440
4440
4440
2A80
2A80
2A80
1100
1100
0000
0000
0000
ENDCHAR
STARTCHAR C0058
ENCODING -1 88
SWIDTH 750 0
DWIDTH 9 0
BBX 9 12 0 -4
BITMAP
0000
2200
2200
1400
0800
1400
2200
2200
4100
0000
0000
0000
ENDCHAR
STARTCHAR C0059
ENCODING -1 89
SWIDTH 750 0
DWIDTH 9 0
BBX 9 12 0 -4
BITMAP
0000
4100
2200
2200
1400
0800
0800
0800
0800
0000
0000
0000
ENDCHAR
STARTCHAR C005A
ENCODING -1 90
SWIDTH 667 0
DWIDTH 8 0
BBX 8 12 0 -4
BITMAP
00
7E
02
04
08
10
20
40
7E
00
00
00
ENDCHAR
STARTCHAR C005B
ENCODING -1 91
SWIDTH 500 0
DWIDTH 6 0
BBX 6 12 0 -4
BITMAP
00
78
40
40
40
40
40
40
40
40
40
78
ENDCHAR
STARTCHAR C005C
ENCODING -1 92
SWIDTH 500 0
DWIDTH 6 0
BBX 6 12 0 -4
BITMAP
00
40
40
20
20
10
10
08
08
00
00
00
ENDCHAR
STARTCHAR C005D
ENCODING -1 93
SWIDTH 500 0
DWIDTH 6 0
BBX 6 12 0 -4
BITMAP
00
78
08
08
08
08
08
08
08
08
08
78
ENDCHAR
STARTCHAR C005E
ENCODING -1 94
SWIDTH 583 0
DWIDTH 7 0
BBX 7 12 0 -4
BITMAP
00
00
10
38
54
10
10
10
00
00
00
00
ENDCHAR
STARTCHAR C005F
ENCODING -1 95
SWIDTH 667 0
DWIDTH 8 0
BBX 8 12 0 -4
BITMAP
00
00
10
20
7E
20
10
00
00
00
00
00
ENDCHAR
STARTCHAR C0060
ENCODING -1 96
SWIDTH 0 0
DWIDTH 0 0
BBX 0 12 0 -4
BITMAP
00
00
00
00
00
00
00
00
00
00
00
00
ENDCHAR
STARTCHAR C0061
ENCODING -1 97
SWIDTH 667 0
DWIDTH 8 0
BBX 8 12 0 -4
BITMAP
00
00
00
38
04
3C
44
44
3A
00
00
00
ENDCHAR
STARTCHAR C0062
ENCODING -1 98
SWIDTH 583 0
DWIDTH 7 0
BBX 7 12 0 -4
BITMAP
00
40
40
58
64
44
44
44
78
00
00
00
ENDCHAR
STARTCHAR C0063
ENCODING -1 99
SWIDTH 583 0
DWIDTH 7 0
BBX 7 12 0 -4
BITMAP
00
00
00
38
44
40
40
44
38
00
00
00
ENDCHAR
STARTCHAR C0064
ENCODING -1 100
SWIDTH 583 0
DWIDTH 7 0
BBX 7 12 0 -4
BITMAP
00
04
04
34
4C
44
44
44
3C
00
00
00
ENDCHAR
STARTCHAR C0065
ENCODING -1 101
SWIDTH 583 0
DWIDTH 7 0
BBX 7 12 0 -4
BITMAP
00
00
00
38
44
44
7C
40
3C
00
00
00
ENDCHAR
STARTCHAR C0066
ENCODING -1 102
SWIDTH 417 0
DWIDTH 5 0
BBX 5 12 0 -4
BITMAP
00
18
20
78
20
20
20
20
20
00
00
00
ENDCHAR
STARTCHAR C0067
ENCODING -1 103
SWIDTH 583 0
DWIDTH 7 0
BBX 7 12 0 -4
BITMAP
00
00
00
34
4C
44
44
44
3C
04
44
38
ENDCHAR
STARTCHAR C0068
ENCODING -1 104
SWIDTH 583 0
DWIDTH 7 0
BBX 7 12 0 -4
BITMAP
00
40
40
78
44
44
44
44
44
00
00
00
ENDCHAR
STARTCHAR C0069
ENCODING -1 105
SWIDTH 250 0
DWIDTH 3 0
BBX 3 12 0 -4
BITMAP
40
40
00
40
40
40
40
40
40
00
00
00
ENDCHAR
STARTCHAR C006A
ENCODING -1 106
SWIDTH 333 0
DWIDTH 4 0
BBX 4 12 0 -4
BITMAP
20
20
00
20
20
20
20
20
20
20
C0
00
ENDCHAR
STARTCHAR C006B
ENCODING -1 107
SWIDTH 500 0
DWIDTH 6 0
BBX 6 12 0 -4
BITMAP
00
40
40
48
50
60
50
48
44
00
00
00
ENDCHAR
STARTCHAR C006C
ENCODING -1 108
SWIDTH 250 0
DWIDTH 3 0
BBX 3 12 0 -4
BITMAP
00
40
40
40
40
40
40
40
40
00
00
00
ENDCHAR
STARTCHAR C006D
ENCODING -1 109
SWIDTH 750 0
DWIDTH 9 0
BBX 9 12 0 -4
BITMAP
0000
0000
0000
7600
4900
4900
4900
4900
4900
0000
0000
0000
ENDCHAR
STARTCHAR C006E
ENCODING -1 110
SWIDTH 583 0
DWIDTH 7 0
BBX 7 12 0 -4
BITMAP
00
00
00
78
44
44
44
44
44
00
00
00
ENDCHAR
STARTCHAR C006F
ENCODING -1 111
SWIDTH 583 0
DWIDTH 7 0
BBX 7 12 0 -4
BITMAP
00
00
00
38
44
44
44
44
38
00
00
00
ENDCHAR
STARTCHAR C0070
ENCODING -1 112
SWIDTH 583 0
DWIDTH 7 0
BBX 7 12 0 -4
BITMAP
00
00
00
58
64
44
44
44
78
40
40
40
ENDCHAR
STARTCHAR C0071
ENCODING -1 113
SWIDTH 583 0
DWIDTH 7 0
BBX 7 12 0 -4
BITMAP
00
00
00
34
4C
44
44
44
3C
04
04
04
ENDCHAR
STARTCHAR C0072
ENCODING -1 114
SWIDTH 417 0
DWIDTH 5 0
BBX 5 12 0 -4
BITMAP
00
00
00
58
60
40
40
40
40
00
00
00
ENDCHAR
STARTCHAR C0073
ENCODING -1 115
SWIDTH 500 0
DWIDTH 6 0
BBX 6 12 0 -4
BITMAP
00
00
00
38
40
30
08
08
70
00
00
00
ENDCHAR
STARTCHAR C0074
ENCODING -1 116
SWIDTH 500 0
DWIDTH 6 0
BBX 6 12 0 -4
BITMAP
00
00
20
78
20
20
20
20
18
00
00
00
ENDCHAR
STARTCHAR C0075
ENCODING -1 117
SWIDTH 583 0
DWIDTH 7 0
BBX 7 12 0 -4
BITMAP
00
00
00
44
44
44
44
44
3C
00
00
00
ENDCHAR
STARTCHAR C0076
ENCODING -1 118
SWIDTH 583 0
DWIDTH 7 0
BBX 7 12 0 -4
BITMAP
00
00
00
44
44
28
28
10
10
00
00
00
ENDCHAR
STARTCHAR C0077
ENCODING -1 119
SWIDTH 917 0
DWIDTH 11 0
BBX 11 12 0 -4
BITMAP
0000
0000
0000
4440
4440
2A80
2A80
1100
1100
0000
0000
0000
ENDCHAR
STARTCHAR C0078
ENCODING -1 120
SWIDTH 583 0
DWIDTH 7 0
BBX 7 12 0 -4
BITMAP
00
00
00
44
28
10
10
28
44
00
00
00
ENDCHAR
STARTCHAR C0079
ENCODING -1 121
SWIDTH 667 0
DWIDTH 8 0
BBX 8 12 0 -4
BITMAP
00
00
00
42
22
24
14
18
08
10
60
00
ENDCHAR
STARTCHAR C007A
ENCODING -1 122
SWIDTH 500 0
DWIDTH 6 0
BBX 6 12 0 -4
BITMAP
00
00
00
78
08
10
20
40
78
00
00
00
ENDCHAR
STARTCHAR C007B
ENCODING -1 123
SWIDTH 583 0
DWIDTH 7 0
BBX 7 12 0 -4
BITMAP
00
0C
10
10
10
10
60
10
10
10
10
0C
ENDCHAR
STARTCHAR C007C
ENCODING -1 124
SWIDTH 250 0
DWIDTH 3 0
BBX 3 12 0 -4
BITMAP
00
40
40
40
40
40
40
40
40
40
40
40
ENDCHAR
STARTCHAR C007D
ENCODING -1 125
SWIDTH 583 0
DWIDTH 7 0
BBX 7 12 0 -4
BITMAP
00
60
10
10
10
10
0C
10
10
10
10
60
ENDCHAR
STARTCHAR C007E
ENCODING -1 126
SWIDTH 667 0
DWIDTH 8 0
BBX 8 12 0 -4
BITMAP
00
00
00
32
4C
00
00
00
00
00
00
00
ENDCHAR
STARTCHAR C007F
ENCODING -1 127
SWIDTH 0 0
DWIDTH 0 0
BBX 0 12 0 -4
BITMAP
00
00
00
00
00
00
00
00
00
00
00
00
ENDCHAR
ENDFONT
